<svg id="Calque_1" data-name="Calque 1" xmlns="http://www.w3.org/2000/svg" width="43.52" height="53.17" viewBox="0 0 43.52 53.17"><defs><style>.cls-1{fill:#fff;}</style></defs><title>logo</title><polygon class="cls-1" points="28.98 18.98 16.54 18.98 16.54 21 21.77 21 21.77 35.21 23.75 35.21 23.75 21 28.98 21 28.98 18.98"/><path class="cls-1" d="M856.49,391.33c-2.37,7.77-8.26,13.28-15.18,13.28-9,0-16.3-9.33-16.3-20.84s7.3-20.84,16.3-20.84c6.13,0,11.47,4.34,14.25,10.73H862c-3.27-9.81-11.29-16.75-20.67-16.75-12.29,0-22.25,11.9-22.25,26.58s10,26.58,22.25,26.58c10,0,18.47-7.89,21.27-18.75Z" transform="translate(-819.06 -356.92)"/></svg>